name rise44.9368peak50.754fall52.0217.mot
datacolumns 19
datarows 12
range 19.64326000000000 19.66159800000000
endheader
time	ground_force1_vx	ground_force1_vy	ground_force1_vz	ground_force1_px	ground_force1_py	ground_force1_pz	ground_force2_vx	ground_force2_vy	ground_force2_vz	ground_force2_px	ground_force2_py	ground_force2_pz	ground_torque1_x	ground_torque1_y	ground_torque1_z	ground_torque2_x	ground_torque2_y	ground_torque2_z	
19.64326000000000	0.15391500000000	706.21453499999996	52.68390000000000	0.23687100000000	0.00000000000000	0.17799100000000	0.00000000000000	0.00000000000000	0.00000000000000	0.00000000000000	0.00000000000000	0.00000000000000	0.00000000000000	24.43571000000000	0.00000000000000	0.00000000000000	0.00000000000000	0.00000000000000	
19.64493100000000	-0.46585500000000	707.01679799999999	52.69943300000000	0.23580400000000	0.00000000000000	0.17805200000000	0.00000000000000	0.00000000000000	0.00000000000000	0.00000000000000	0.00000000000000	0.00000000000000	0.00000000000000	24.57243200000000	0.00000000000000	0.00000000000000	0.00000000000000	0.00000000000000	
19.64659800000000	-1.09857800000000	707.82358599999998	52.71651000000000	0.23470300000000	0.00000000000000	0.17811400000000	0.00000000000000	0.00000000000000	0.00000000000000	0.00000000000000	0.00000000000000	0.00000000000000	0.00000000000000	24.71293700000000	0.00000000000000	0.00000000000000	0.00000000000000	0.00000000000000	
19.64826700000000	-1.74412300000000	708.63466000000005	52.73521300000000	0.23357000000000	0.00000000000000	0.17817700000000	0.00000000000000	0.00000000000000	0.00000000000000	0.00000000000000	0.00000000000000	0.00000000000000	0.00000000000000	24.85728500000000	0.00000000000000	0.00000000000000	0.00000000000000	0.00000000000000	
19.64992700000000	-2.40232100000000	709.44984499999998	52.75563200000000	0.23240700000000	0.00000000000000	0.17824200000000	0.00000000000000	0.00000000000000	0.00000000000000	0.00000000000000	0.00000000000000	0.00000000000000	0.00000000000000	25.00553600000000	0.00000000000000	0.00000000000000	0.00000000000000	0.00000000000000	
19.65160000000000	-3.07297400000000	710.26903000000004	52.77785600000000	0.23121500000000	0.00000000000000	0.17830700000000	0.00000000000000	0.00000000000000	0.00000000000000	0.00000000000000	0.00000000000000	0.00000000000000	0.00000000000000	25.15774900000000	0.00000000000000	0.00000000000000	0.00000000000000	0.00000000000000	
19.65325800000000	-3.75584700000000	711.09216500000002	52.80198100000000	0.22999700000000	0.00000000000000	0.17837300000000	0.00000000000000	0.00000000000000	0.00000000000000	0.00000000000000	0.00000000000000	0.00000000000000	0.00000000000000	25.31397700000000	0.00000000000000	0.00000000000000	0.00000000000000	0.00000000000000	
19.65493400000000	-4.45067900000000	711.91925800000001	52.82810400000000	0.22875400000000	0.00000000000000	0.17844000000000	0.00000000000000	0.00000000000000	0.00000000000000	0.00000000000000	0.00000000000000	0.00000000000000	0.00000000000000	25.47427300000000	0.00000000000000	0.00000000000000	0.00000000000000	0.00000000000000	
19.65659800000000	-5.15717500000000	712.75037899999995	52.85632300000000	0.22748900000000	0.00000000000000	0.17850800000000	0.00000000000000	0.00000000000000	0.00000000000000	0.00000000000000	0.00000000000000	0.00000000000000	0.00000000000000	25.63868200000000	0.00000000000000	0.00000000000000	0.00000000000000	0.00000000000000	
19.65826100000000	-5.87501100000000	713.58565299999998	52.88673600000000	0.22620300000000	0.00000000000000	0.17857600000000	0.00000000000000	0.00000000000000	0.00000000000000	0.00000000000000	0.00000000000000	0.00000000000000	0.00000000000000	25.80724500000000	0.00000000000000	0.00000000000000	0.00000000000000	0.00000000000000	
19.65992900000000	-6.60383700000000	714.42526199999998	52.91944500000000	0.22490000000000	0.00000000000000	0.17864500000000	0.00000000000000	0.00000000000000	0.00000000000000	0.00000000000000	0.00000000000000	0.00000000000000	0.00000000000000	25.97999600000000	0.00000000000000	0.00000000000000	0.00000000000000	0.00000000000000	
19.66159800000000	-7.34327500000000	715.26944200000003	52.95454700000000	0.22358200000000	0.00000000000000	0.17871400000000	0.00000000000000	0.00000000000000	0.00000000000000	0.00000000000000	0.00000000000000	0.00000000000000	0.00000000000000	26.15696200000000	0.00000000000000	0.00000000000000	0.00000000000000	0.00000000000000	
